<svg width="444" height="292" viewBox="0 0 444 292" fill="none" xmlns="http://www.w3.org/2000/svg">
<path fill-rule="evenodd" clip-rule="evenodd" d="M223.058 -167.435C269.821 -154.177 289.686 -101.178 328.076 -71.3156C364.556 -42.9386 414.184 -34.9309 441.431 2.43424C475.869 49.6593 524.114 110.549 499.3 163.491C473.696 218.119 392.753 210.008 335.446 228.563C298.058 240.669 261.435 244.489 223.058 252.933C170.054 264.596 119.727 303.884 68.0111 287.406C11.2912 269.333 -36.8109 220.875 -55.3909 164.21C-73.9925 107.479 -50.4072 47.1959 -29.0282 -8.54349C-8.70295 -61.5353 15.7433 -116.049 63.6967 -146.275C110.194 -175.582 170.204 -182.421 223.058 -167.435Z" fill="#79E7FF"/>
</svg>
