<svg width="240" height="240" viewBox="0 0 240 240" fill="none" xmlns="http://www.w3.org/2000/svg">
<path d="M119.625 113.625V232.5C119.625 232.5 168.75 198 203.25 187.875C203.25 187.875 204.75 114.375 226.125 77.625L119.625 113.625" fill="#076170"/>
<path d="M150.375 214.5C150.375 214.5 152.25 109.125 156 103.875C159.75 98.25 192 92.625 192 92.625C192 92.625 178.875 191.25 181.875 197.625C182.25 197.25 168.75 202.875 150.375 214.5Z" fill="#B3690E"/>
<path d="M119.625 232.5C119.625 232.5 85.125 203.25 31.5 187.875C31.5 187.875 35.625 127.5 16.125 81.375L119.625 113.625V232.5Z" fill="#3BAACF"/>
<path d="M53.25 197.625C53.25 197.625 84.75 210.375 87 214.5C89.25 218.625 89.25 108.375 89.25 108.375C89.25 108.375 46.125 96.375 42.375 96.375C42.375 96.375 55.5 141 53.25 197.625" fill="#E9C243"/>
<path opacity="0.3" d="M119.625 113.625V133.5L216 100.5C218.625 92.25 222 84.375 225.75 77.625L119.625 113.625" fill="black"/>
<path opacity="0.3" d="M22.875 102C21 94.875 18.75 88.125 15.75 81.375L119.25 113.625V133.5L22.875 102Z" fill="black"/>
<path d="M7.5 70.875L114.375 94.5L232.5 66L116.625 59.625L7.5 70.875Z" fill="#4FC7E8"/>
<path d="M7.5 70.875L16.125 94.5L114.375 122.25V94.5L7.5 70.875Z" fill="#3BAACF"/>
<path d="M114.375 122.25C114.375 122.25 203.625 89.25 225.75 87.75C225.75 87.75 227.25 74.625 232.5 66.375L114.375 94.5V122.25Z" fill="#076170"/>
<path d="M39.375 78L61.125 98.625L85.125 87.75L120 77.25L163.5 82.5L186.375 87L204.75 72.75L39.375 78Z" fill="#F0AE11"/>
<path d="M85.125 87.75L120 77.25L163.5 82.5L204.75 72.75L117.75 64.5L39.375 78L85.125 87.75Z" fill="#F0AE11"/>
<path d="M39.375 78V104.25L83.25 116.25L85.125 87.75L39.375 78Z" fill="#F8D048"/>
<path d="M163.5 82.5L164.25 107.625L201.75 96.375L204.75 72.75L163.5 82.5Z" fill="#C47116"/>
<path d="M139.875 64.875C139.875 64.875 139.875 38.625 165.375 15.75C165.375 15.75 150 21.375 142.5 19.875C133.5 18.375 130.5 7.5 130.5 7.5C130.5 7.5 108.75 54.75 115.125 60.75C121.5 67.125 139.875 64.875 139.875 64.875Z" fill="#EA9F07"/>
<path d="M106.5 80.25C106.5 80.25 91.875 50.25 60.75 34.5C60.75 34.5 85.125 32.25 90.75 29.25C97.875 25.875 102 16.5 102 16.5C102 16.5 129 63.75 126.75 70.875C124.5 78 106.5 80.25 106.5 80.25Z" fill="#F8D048"/>
<path d="M122.25 76.875C122.25 76.875 99.375 85.875 70.125 85.875C8.625 85.5 -2.6605e-06 41.25 60.75 45.375C110.625 49.125 122.25 76.875 122.25 76.875" fill="#EA9F07"/>
<path d="M118.125 76.5C118.125 76.5 145.125 78.75 170.25 72.375C222.75 58.875 203.25 19.125 153.75 36C113.25 49.875 118.125 76.5 118.125 76.5Z" fill="#F0AE11"/>
<path d="M122.25 76.875C122.25 76.875 108 82.5 89.625 82.5C51.375 82.5 45.75 54.75 83.625 57.375C114.75 59.625 122.25 76.875 122.25 76.875" fill="#824000"/>
<path d="M122.25 76.875C122.25 76.875 141 78.375 158.625 73.875C195.375 64.5 181.5 36.75 147.375 48.375C118.875 58.125 122.25 76.875 122.25 76.875" fill="#824000"/>
</svg>
